# xmcd CD Database Entry
#
# Track frame offsets:
# 150
# 18134
# 38011
# 56181
# 71618
# 93328
# 115623
# 132688
# 146428
# 164252
# 181308
# 194504
# 216801
# 232144
# 248608
# 265108
#
# Disc length: 3978 seconds
#
# Revision: 1
# Processed by: cddbd v1.5.2PL0 Copyright (c) Steve Scherf et al.
# Submitted via: tcd 2.0b
#
DISCID=e30f8810
DTITLE=Espen Lind, Kurt Nilsen, Alejandro Fuentes og Askil Holm - Ha
DTITLE=llelujah "Live"
DYEAR=1900
DGENRE=
TTITLE0=Unloved
TTITLE1=Sail Away
TTITLE2=Mary Jane's Last Dance
TTITLE3=Weddings Off
TTITLE4=Stars
TTITLE5=Kiss From A Rose
TTITLE6=Desire
TTITLE7=Stay On These Roads
TTITLE8=Never Easy
TTITLE9=The River
TTITLE10=I'm A Man Of Constant Sorrow
TTITLE11=I Can't Make You Love Me
TTITLE12=I Got A Woman
TTITLE13=The Boys Of Summer
TTITLE14=When Susanna Cries
TTITLE15=Hallelujah
EXTD=
EXTT0=
EXTT1=
EXTT2=
EXTT3=
EXTT4=
EXTT5=
EXTT6=
EXTT7=
EXTT8=
EXTT9=
EXTT10=
EXTT11=
EXTT12=
EXTT13=
EXTT14=
EXTT15=
PLAYORDER=
